<svg version="1.0" xmlns="http://www.w3.org/2000/svg"
 width="84.000000pt" height="84.000000pt" viewBox="0 0 84.000000 84.000000"
 preserveAspectRatio="xMidYMid meet">

<g transform="translate(0.000000,84.000000) scale(0.100000,-0.100000)"
fill="#000000" stroke="none">
<path d="M314 829 c-4 -7 -9 -43 -12 -81 -4 -62 -12 -83 -70 -191 -76 -143
-102 -213 -102 -274 0 -68 33 -114 43 -61 2 13 5 -5 6 -40 1 -71 25 -128 67
-161 23 -18 40 -20 174 -20 136 0 150 1 175 21 38 30 64 93 66 158 1 30 3 47
6 38 12 -45 43 0 43 62 0 58 -29 137 -104 280 -54 101 -66 133 -66 171 0 57
-17 109 -36 109 -21 0 -36 -48 -31 -95 l4 -40 -57 0 -57 0 4 40 c8 67 -28 123
-53 84z m33 -205 c7 -19 -20 -49 -36 -40 -12 8 -15 39 -4 49 12 12 33 7 40 -9z
m183 0 c11 -12 10 -18 -4 -32 -16 -16 -18 -16 -31 2 -11 14 -12 23 -4 33 15
17 24 16 39 -3z m-80 -14 c0 -5 -13 -10 -30 -10 -16 0 -30 5 -30 10 0 6 14 10
30 10 17 0 30 -4 30 -10z m79 -130 c33 -17 87 -88 99 -129 34 -111 -11 -239
-102 -296 -101 -62 -224 -28 -291 79 -27 44 -30 58 -30 130 0 94 24 148 86
198 55 45 173 53 238 18z m-332 -112 c-3 -7 -5 -2 -5 12 0 14 2 19 5 13 2 -7
2 -19 0 -25z m450 0 c-3 -7 -5 -2 -5 12 0 14 2 19 5 13 2 -7 2 -19 0 -25z
m-460 -75 c-3 -10 -5 -4 -5 12 0 17 2 24 5 18 2 -7 2 -21 0 -30z m470 0 c-3
-10 -5 -4 -5 12 0 17 2 24 5 18 2 -7 2 -21 0 -30z"/>
<path d="M315 610 c3 -5 8 -10 11 -10 2 0 4 5 4 10 0 6 -5 10 -11 10 -5 0 -7
-4 -4 -10z"/>
<path d="M505 610 c3 -5 8 -10 11 -10 2 0 4 5 4 10 0 6 -5 10 -11 10 -5 0 -7
-4 -4 -10z"/>
<path d="M355 460 c-4 -6 5 -10 19 -10 14 0 26 5 26 10 0 6 -9 10 -19 10 -11
0 -23 -4 -26 -10z"/>
<path d="M445 460 c-4 -6 5 -10 20 -10 15 0 24 4 20 10 -3 6 -12 10 -20 10 -8
0 -17 -4 -20 -10z"/>
<path d="M266 425 c-4 -12 -2 -13 12 -7 9 5 23 7 31 4 8 -3 11 0 7 7 -10 16
-43 14 -50 -4z"/>
<path d="M524 429 c-4 -8 -3 -9 5 -5 6 4 19 2 28 -6 14 -11 15 -11 11 2 -6 19
-34 25 -44 9z"/>
<path d="M414 386 c-16 -12 -14 -13 14 -12 33 1 42 10 18 19 -8 3 -22 0 -32
-7z"/>
<path d="M306 364 c-5 -12 -2 -15 10 -10 8 3 20 6 25 6 5 0 9 5 9 10 0 16 -37
11 -44 -6z"/>
<path d="M507 373 c-3 -5 6 -9 19 -9 13 -1 24 2 24 7 0 11 -37 12 -43 2z"/>
<path d="M227 353 c-13 -13 -7 -21 13 -16 11 3 17 9 14 14 -6 11 -18 12 -27 2z"/>
<path d="M586 352 c-3 -6 3 -12 15 -15 12 -3 19 -1 16 6 -5 15 -24 20 -31 9z"/>
</g>
</svg>
